<?xml version="1.0" encoding="UTF-8"?>
<svg xmlns="http://www.w3.org/2000/svg" xmlns:xlink="http://www.w3.org/1999/xlink" width="252pt" height="144pt" viewBox="0 0 252 144" version="1.1">
<g id="surface1">
<path style=" stroke:none;fill-rule:nonzero;fill:rgb(78.799438%,14.498901%,16.899109%);fill-opacity:1;" d="M -45.984375 72.023438 C -45.984375 -22.421875 30.574219 -98.980469 125.011719 -98.980469 C 219.453125 -98.980469 296.007813 -22.421875 296.007813 72.023438 C 296.007813 166.46875 219.453125 243.027344 125.011719 243.027344 C 30.574219 243.027344 -45.984375 166.46875 -45.984375 72.023438 "/>
<path style="fill:none;stroke-width:80.35;stroke-linecap:butt;stroke-linejoin:miter;stroke:rgb(67.842102%,64.704895%,30.979919%);stroke-opacity:1;stroke-miterlimit:3.864;" d="M -459.84375 719.765625 C -459.84375 1664.21875 305.742188 2429.804688 1250.117188 2429.804688 C 2194.53125 2429.804688 2960.078125 1664.21875 2960.078125 719.765625 C 2960.078125 -224.6875 2194.53125 -990.273438 1250.117188 -990.273438 C 305.742188 -990.273438 -459.84375 -224.6875 -459.84375 719.765625 Z M -459.84375 719.765625 " transform="matrix(0.1,0,0,-0.1,0,144)"/>
<path style=" stroke:none;fill-rule:nonzero;fill:rgb(0%,39.99939%,70.199585%);fill-opacity:1;" d="M -0.992188 72.195313 C -0.992188 2.851563 56.164063 -53.359375 126.667969 -53.359375 C 197.171875 -53.359375 254.324219 2.851563 254.324219 72.195313 C 254.324219 141.539063 197.171875 197.753906 126.667969 197.753906 C 56.164063 197.753906 -0.992188 141.539063 -0.992188 72.195313 "/>
<path style="fill:none;stroke-width:5.94;stroke-linecap:butt;stroke-linejoin:miter;stroke:rgb(0%,39.99939%,70.199585%);stroke-opacity:1;stroke-miterlimit:3.864;" d="M -9.921875 718.046875 C -9.921875 1411.484375 561.640625 1973.59375 1266.679688 1973.59375 C 1971.71875 1973.59375 2543.242188 1411.484375 2543.242188 718.046875 C 2543.242188 24.609375 1971.71875 -537.539063 1266.679688 -537.539063 C 561.640625 -537.539063 -9.921875 24.609375 -9.921875 718.046875 Z M -9.921875 718.046875 " transform="matrix(0.1,0,0,-0.1,0,144)"/>
<path style=" stroke:none;fill-rule:nonzero;fill:rgb(100%,100%,100%);fill-opacity:1;" d="M 18.777344 135.746094 C 73.011719 123.140625 105.195313 112.339844 160.78125 121.566406 C 188.234375 126.066406 205.6875 118.003906 229.765625 131.28125 C 208.039063 210.84375 66.066406 224.421875 18.777344 135.746094 "/>
<path style="fill:none;stroke-width:5.94;stroke-linecap:butt;stroke-linejoin:miter;stroke:rgb(13.699341%,12.199402%,12.5%);stroke-opacity:1;stroke-miterlimit:3.864;" d="M 187.773438 82.539063 C 730.117188 208.59375 1051.953125 316.601563 1607.8125 224.335938 C 1882.34375 179.335938 2056.875 259.960938 2297.65625 127.1875 C 2080.390625 -668.4375 660.664063 -804.21875 187.773438 82.539063 Z M 187.773438 82.539063 " transform="matrix(0.1,0,0,-0.1,0,144)"/>
<path style=" stroke:none;fill-rule:evenodd;fill:rgb(100%,100%,100%);fill-opacity:1;" d="M 109.800781 103.914063 C 97.734375 113.453125 86.90625 111.691406 71.21875 115.140625 C 66.148438 115.679688 60.523438 117.960938 56.144531 118.96875 C 50.828125 120.191406 47.300781 120.363281 44.828125 126.058594 C 43.414063 129.332031 49.890625 129.007813 51.527344 132.144531 C 52.144531 133.382813 49.847656 133.867188 48.476563 134.136719 C 43.171875 135.28125 38.113281 137.011719 34.707031 132.855469 C 38.941406 126.894531 32.320313 121.320313 31.480469 113.761719 C 31.171875 110.757813 35.0625 109.652344 38.066406 109.652344 C 42.222656 109.652344 42.789063 110.566406 46.808594 109.550781 C 56.796875 106.941406 62.464844 100.546875 71.699219 95.90625 C 77.402344 93.03125 82.6875 91.789063 87.425781 90.226563 C 84.460938 82.625 83.105469 77.472656 77.53125 72.496094 C 75.824219 70.226563 75.402344 66.679688 73.789063 64.164063 C 72.4375 62.054688 70.609375 60.671875 69.71875 57.996094 C 68.472656 51.796875 68.367188 44.761719 69.71875 38.148438 C 69.980469 36.871094 71.4375 36.015625 72.371094 34.730469 C 73.285156 33.472656 73.679688 31.785156 74.363281 30.890625 C 75.292969 29.683594 77.0625 28.855469 78 27.890625 C 80.441406 25.378906 82.070313 23.097656 84.460938 19.507813 C 90.339844 14.203125 91.691406 13.664063 97.527344 8.363281 C 105.351563 1.289063 112.800781 -4.695313 123.363281 -5.183594 C 131.984375 -5.582031 137.265625 -2.785156 143.710938 -0.460938 C 151.898438 2.492188 161.273438 -8.082031 166.09375 -0.835938 C 164.984375 -1.800781 172.460938 1.039063 173.960938 6.28125 C 174.445313 7.960938 167.863281 11.308594 166.492188 12.371094 C 162.472656 15.550781 167.65625 15.46875 161.328125 17.632813 C 159.835938 13.664063 155.707031 17.597656 152.566406 17.90625 C 149.652344 18.214844 148.332031 15.96875 145.636719 14.863281 C 145.636719 17.972656 145.058594 20.734375 145.664063 23.429688 C 146.5 27.132813 148.808594 27.164063 147.703125 34.886719 C 153.847656 34.886719 159.171875 40.96875 157.621094 46.933594 C 155.855469 53.695313 151.8125 57.4375 150.355469 64.417969 C 150.355469 62.695313 150.929688 61.414063 152.34375 60.484375 C 152.34375 60.484375 165.367188 80.375 165.03125 81.574219 C 166.878906 84.699219 174.753906 92.789063 176.742188 94.777344 C 183.550781 101.585938 177.492188 101.019531 177.492188 110.65625 C 177.492188 113.484375 179.441406 116.464844 176.964844 117.859375 C 172.632813 120.300781 173.085938 119.167969 170.082031 117.488281 C 164.027344 114.085938 161.273438 109.066406 157.914063 103.011719 C 154.601563 97.042969 152.304688 93.773438 147.882813 88.6875 C 146.953125 87.628906 146.378906 86.039063 145.011719 86.390625 C 140.414063 87.628906 141.34375 92.890625 139.660156 97.308594 C 137.628906 102.566406 139.042969 108.359375 143.949219 111.1875 C 148.722656 113.972656 158.921875 111.703125 156.144531 117.929688 C 146.199219 117.929688 140.339844 118.238281 130.394531 118.238281 C 125.839844 118.238281 120.757813 121.066406 118.726563 117 C 116.648438 112.800781 121.011719 106.71875 123.53125 102.699219 C 132.101563 88.546875 122.886719 77.386719 131.023438 63.421875 C 131.90625 62.363281 128.339844 62.695313 126.96875 62.960938 C 123.832031 63.625 122.019531 63.890625 118.96875 64.773438 C 113.84375 66.320313 110.492188 66.894531 105.144531 66.894531 C 108.265625 73.941406 109.4375 79.746094 110.363281 85.8125 C 111.207031 91.351563 112.058594 97.121094 109.800781 103.914063 "/>
<path style="fill:none;stroke-width:5.94;stroke-linecap:butt;stroke-linejoin:miter;stroke:rgb(13.699341%,12.199402%,12.5%);stroke-opacity:1;stroke-miterlimit:3.864;" d="M 1734.296875 100.546875 L 1655.507813 55.546875 M 1796.914063 55.546875 L 1857.695313 12.773438 M 1493.085938 1.914063 L 1634.882813 37.890625 M 1206.914063 46.914063 L 1366.679688 89.6875 M 804.804688 -176.679688 L 892.578125 -228.398438 M 1502.109375 -194.648438 L 1643.867188 -178.90625 M 1197.890625 -221.289063 C 1281.171875 -221.289063 1337.421875 -210.039063 1411.679688 -246.054688 M 1027.96875 -248.320313 C 1093.242188 -212.304688 1124.765625 -183.046875 1196.757813 -160.546875 " transform="matrix(0.1,0,0,-0.1,0,144)"/>
<path style="fill:none;stroke-width:8.04;stroke-linecap:butt;stroke-linejoin:miter;stroke:rgb(13.699341%,12.199402%,12.5%);stroke-opacity:1;stroke-miterlimit:3.864;" d="M 1452.539063 1092.851563 L 1480 1092.851563 L 1512.226563 1084.804688 L 1543.710938 1068.710938 C 1543.710938 1068.710938 1559.804688 1053.28125 1567.851563 1037.1875 C 1575.9375 1021.09375 1579.960938 1004.960938 1579.960938 1004.960938 L 1575.9375 961.40625 L 1551.757813 909.765625 L 1524.296875 849.375 L 1504.140625 797.734375 M 1038.085938 1025.117188 L 1081.640625 1033.164063 L 1149.414063 1048.554688 L 1213.125 1052.617188 L 1233.242188 1052.617188 M 1452.539063 1220.273438 L 1475.976563 1164.648438 L 1480 1132.421875 L 1480 1084.804688 M 1211.09375 1128.242188 L 1157.734375 1116.171875 L 1137.148438 1092.578125 L 1097.851563 1068.984375 L 1053.710938 1044.492188 C 1053.710938 1044.492188 1028.515625 1020.976563 1010.976563 1006.484375 C 998.945313 1020.976563 985.976563 1024.84375 970.273438 1032.695313 C 954.53125 1040.546875 934.882813 1057.1875 918.242188 1065.039063 C 901.601563 1072.890625 858.359375 1108.28125 858.359375 1108.28125 L 826.914063 1124.921875 L 779.21875 1164.648438 L 830.859375 1232.34375 L 906.640625 1300.117188 L 966.328125 1347.695313 L 1017.96875 1391.289063 L 1058.203125 1423.515625 L 1105.820313 1459.023438 L 1153.4375 1475.117188 L 1209.0625 1491.210938 L 1257.382813 1495.273438 L 1321.09375 1487.226563 L 1352.617188 1475.117188 L 1424.375 1479.140625 L 1456.5625 1503.28125 L 1472.65625 1546.875 L 1464.609375 1590.46875 L 1420.3125 1602.539063 L 1416.289063 1646.835938 L 1452.539063 1674.335938 L 1492.109375 1690.390625 C 1492.109375 1690.390625 1512.929688 1698.476563 1532.34375 1706.523438 C 1551.757813 1714.570313 1543.710938 1718.59375 1571.914063 1718.59375 L 1635.625 1718.59375 L 1675.859375 1714.570313 L 1699.296875 1686.40625 L 1727.5 1666.25 L 1767.03125 1646.835938 L 1799.257813 1614.648438 L 1830.742188 1571.054688 L 1858.945313 1519.414063 L 1862.96875 1491.210938 L 1862.96875 1463.046875 L 1871.015625 1431.5625 L 1871.015625 1403.359375 L 1830.742188 1379.921875 L 1787.1875 1371.875 L 1743.59375 1371.875 L 1663.789063 1316.210938 L 1638.085938 1272.851563 C 1638.085938 1272.851563 1610.820313 1265.625 1613.046875 1264.53125 C 1604.140625 1265.625 1599.257813 1283.984375 1599.257813 1283.984375 L 1596.992188 1283.984375 L 1567.851563 1271.914063 L 1540.390625 1263.867188 C 1554.84375 1266.210938 1528.320313 1255.78125 1512.226563 1263.867188 C 1496.09375 1271.914063 1480 1275.9375 1480 1275.9375 L 1456.5625 1292.03125 L 1452.539063 1148.515625 L 1456.5625 1037.1875 C 1456.5625 1037.1875 1448.515625 977.5 1448.515625 957.382813 L 1448.515625 889.648438 L 1468.632813 869.53125 L 1567.851563 686.445313 L 1600.078125 594.53125 L 1631.5625 546.914063 L 1647.695313 487.226563 C 1647.695313 487.226563 1660.46875 463.085938 1675.859375 455.039063 C 1691.25 446.992188 1738.945313 452.695313 1738.945313 452.695313 L 1749.609375 415.078125 L 1746.953125 377.421875 L 1741.601563 326.71875 L 1760.273438 259.492188 L 1635.625 319.53125 L 1380.78125 702.539063 L 1337.1875 781.640625 L 1288.90625 865.46875 L 1261.40625 957.382813 C 1261.40625 957.382813 1237.265625 1017.773438 1233.242188 1037.1875 C 1229.21875 1056.601563 1213.125 1076.757813 1213.125 1092.851563 L 1213.125 1140.46875 L 1221.132813 1176.71875 C 1221.132813 1176.71875 1220.46875 1204.179688 1209.0625 1220.273438 C 1197.695313 1236.40625 1185.625 1263.867188 1185.625 1263.867188 L 1185.625 1288.007813 " transform="matrix(0.1,0,0,-0.1,0,144)"/>
<path style=" stroke:none;fill-rule:evenodd;fill:rgb(100%,100%,100%);fill-opacity:1;" d="M 174.578125 116.234375 C 175.0625 115.652344 173.628906 114.023438 173.628906 114.023438 L 173.625 109.222656 L 174.027344 105.265625 L 173.625 102.046875 L 173.625 100.101563 L 172.890625 98.089844 L 170.070313 98.089844 L 168.058594 100.507813 L 166.117188 101.644531 L 166.519531 98.089844 L 170.070313 94.867188 L 173.292969 93.730469 C 173.292969 93.730469 174.429688 93.257813 176.441406 95.273438 C 178.453125 97.285156 176.441406 95.273438 176.441406 95.273438 L 180.398438 94.464844 C 180.398438 94.464844 182.007813 92.925781 183.617188 92.925781 C 185.226563 92.925781 188.378906 97.285156 188.378906 97.285156 L 188.78125 103.65625 L 188.78125 108.011719 L 186.839844 110.027344 L 184.824219 107.28125 L 184.019531 102.851563 L 184.019531 99.699219 L 180.066406 101.644531 C 180.066406 101.644531 178.855469 106.144531 178.855469 107.683594 C 178.855469 109.222656 178.453125 111.234375 178.855469 112.84375 C 179.261719 114.457031 179.261719 116.800781 179.261719 116.800781 L 187.558594 124.484375 L 178.992188 124.484375 L 172.027344 124.214844 L 163.167969 123.121094 L 162.492188 114.457031 L 163.96875 112.15625 C 163.96875 112.15625 171.644531 117.773438 174.578125 116.234375 "/>
<path style="fill:none;stroke-width:8.04;stroke-linecap:butt;stroke-linejoin:miter;stroke:rgb(13.699341%,12.199402%,12.5%);stroke-opacity:1;stroke-miterlimit:3.864;" d="M 1745.78125 277.65625 C 1750.625 283.476563 1736.289063 299.765625 1736.289063 299.765625 L 1736.25 347.773438 L 1740.273438 387.34375 L 1736.25 419.53125 L 1736.25 438.984375 L 1728.90625 459.101563 L 1700.703125 459.101563 L 1680.585938 434.921875 L 1661.171875 423.554688 L 1665.195313 459.101563 L 1700.703125 491.328125 L 1732.929688 502.695313 C 1732.929688 502.695313 1744.296875 507.421875 1764.414063 487.265625 C 1784.53125 467.148438 1764.414063 487.265625 1764.414063 487.265625 L 1803.984375 495.351563 C 1803.984375 495.351563 1820.078125 510.742188 1836.171875 510.742188 C 1852.265625 510.742188 1883.789063 467.148438 1883.789063 467.148438 L 1887.8125 403.4375 L 1887.8125 359.882813 L 1868.398438 339.726563 L 1848.242188 367.1875 L 1840.195313 411.484375 L 1840.195313 443.007813 L 1800.664063 423.554688 C 1800.664063 423.554688 1788.554688 378.554688 1788.554688 363.164063 C 1788.554688 347.773438 1784.53125 327.65625 1788.554688 311.5625 C 1792.617188 295.429688 1792.617188 271.992188 1792.617188 271.992188 L 1875.585938 195.15625 L 1789.921875 195.15625 L 1720.273438 197.851563 L 1631.679688 208.789063 L 1624.921875 295.429688 L 1639.6875 318.4375 C 1639.6875 318.4375 1716.445313 262.265625 1745.78125 277.65625 Z M 1745.78125 277.65625 " transform="matrix(0.1,0,0,-0.1,0,144)"/>
<path style="fill:none;stroke-width:8.04;stroke-linecap:butt;stroke-linejoin:miter;stroke:rgb(13.699341%,12.199402%,12.5%);stroke-opacity:1;stroke-miterlimit:3.864;" d="M 1428.398438 1387.265625 L 1448.515625 1351.71875 C 1448.515625 1351.71875 1460.585938 1346.992188 1460.585938 1331.601563 C 1460.585938 1316.210938 1468.632813 1283.984375 1468.632813 1283.984375 M 759.179688 1140.664063 L 782.773438 1112.226563 C 782.773438 1112.226563 811.210938 1084.726563 826.914063 1072.890625 C 842.65625 1061.132813 853.515625 1058.125 866.25 1049.335938 C 878.945313 1040.546875 894.6875 1036.640625 894.6875 1036.640625 C 894.6875 1036.640625 1017.539063 990 1038.125 970.351563 C 1058.710938 950.703125 942.890625 1013.710938 942.890625 1013.710938 M 1018.359375 889.335938 C 993.828125 889.335938 933.984375 881.484375 918.242188 881.484375 C 902.539063 881.484375 838.710938 865.78125 838.710938 865.78125 C 838.710938 865.78125 802.421875 845.195313 790.625 837.34375 C 778.867188 829.492188 743.476563 805.898438 743.476563 805.898438 L 743.476563 782.304688 M 811.210938 997.304688 L 862.304688 976.757813 C 862.304688 976.757813 909.453125 972.8125 922.1875 964.960938 C 934.882813 957.109375 950.625 953.164063 966.328125 937.460938 C 982.070313 921.71875 986.914063 925.664063 1002.617188 921.71875 C 1018.359375 917.8125 1026.210938 913.867188 1026.210938 913.867188 M 875.273438 537.773438 L 826.914063 523.164063 L 778.867188 507.421875 L 709.921875 478.984375 L 643.398438 434.84375 C 643.398438 434.84375 612.851563 415.195313 600.15625 407.304688 C 587.421875 399.453125 556.015625 383.75 556.015625 383.75 L 523.632813 367.109375 L 476.484375 347.460938 L 432.34375 339.570313 L 376.367188 343.515625 L 341.015625 335.664063 C 341.015625 335.664063 316.523438 324.765625 316.523438 312.070313 C 316.523438 299.375 321.367188 275.78125 325.273438 263.984375 C 329.21875 252.1875 333.164063 239.492188 337.109375 227.695313 C 341.015625 215.898438 356.71875 205.039063 356.71875 176.601563 C 356.71875 148.164063 360.664063 136.367188 360.664063 136.367188 L 344.960938 116.71875 L 384.21875 88.28125 C 384.21875 88.28125 412.695313 84.375 424.453125 84.375 C 436.25 84.375 452.890625 96.171875 464.6875 96.171875 C 476.484375 96.171875 492.1875 104.921875 503.984375 104.921875 C 515.78125 104.921875 527.578125 116.71875 515.78125 124.570313 C 503.984375 132.460938 492.1875 124.570313 480.390625 132.460938 C 468.632813 140.3125 448.046875 159.960938 448.046875 159.960938 L 455.898438 200.195313 C 455.898438 200.195313 480.390625 227.695313 492.1875 231.640625 C 503.984375 235.546875 515.78125 236.484375 515.78125 236.484375 L 579.609375 256.132813 C 579.609375 256.132813 671.835938 283.632813 687.539063 283.632813 C 703.242188 283.632813 783.710938 308.164063 807.304688 308.164063 C 830.859375 308.164063 859.296875 316.015625 890.742188 319.960938 C 922.1875 323.867188 985.976563 339.570313 985.976563 339.570313 C 985.976563 339.570313 1018.359375 355.3125 1034.0625 359.21875 C 1049.765625 363.164063 1070.351563 375.898438 1082.148438 383.75 C 1093.945313 391.601563 1109.648438 418.203125 1109.648438 430.898438 C 1109.648438 443.632813 1113.59375 475.078125 1113.59375 475.078125 L 1097.851563 634.140625 L 1065.507813 746.015625 L 1034.0625 857.929688 L 1022.265625 901.132813 L 1030.117188 937.460938 L 1049.765625 1001.25 L 1057.65625 1024.84375 M 786.71875 1160.3125 C 786.71875 1160.3125 747.421875 1140.664063 743.476563 1128.867188 C 739.570313 1117.070313 724.414063 1092.578125 709.921875 1076.835938 C 695.390625 1061.132813 691.484375 1024.84375 691.484375 1013.046875 L 691.484375 953.164063 L 695.390625 897.226563 C 695.390625 897.226563 696.914063 853.046875 709.921875 837.34375 C 722.890625 821.601563 751.328125 774.453125 751.328125 774.453125 C 751.328125 774.453125 773.984375 705.78125 790.625 693.984375 C 807.304688 682.1875 842.65625 638.046875 846.5625 618.398438 C 850.507813 598.75 855.351563 578.164063 867.148438 554.570313 C 878.945313 531.015625 886.796875 514.375 894.6875 502.578125 M 1519.960938 837.34375 L 1564.140625 774.453125 L 1583.789063 734.21875 L 1607.34375 701.835938 C 1607.34375 701.835938 1627.929688 682.1875 1631.875 670.429688 C 1635.78125 658.632813 1643.632813 641.992188 1651.523438 626.25 C 1659.375 610.546875 1687.8125 575.15625 1687.8125 575.15625 L 1719.257813 546.71875 C 1719.257813 546.71875 1737.96875 528.007813 1746.757813 515.3125 C 1755.546875 502.578125 1767.34375 482.929688 1767.34375 482.929688 M 1061.5625 773.515625 L 1117.539063 778.398438 L 1165.585938 786.25 C 1165.585938 786.25 1213.671875 798.046875 1225.46875 801.953125 C 1237.265625 805.898438 1273.554688 813.75 1273.554688 813.75 L 1301.054688 813.75 L 1308.945313 798.046875 L 1289.257813 765.664063 L 1273.554688 722.421875 L 1273.554688 662.539063 C 1273.554688 650.78125 1277.460938 594.804688 1277.460938 594.804688 C 1277.460938 594.804688 1272.617188 527.070313 1268.710938 515.3125 C 1264.765625 503.476563 1264.765625 494.726563 1260.859375 478.984375 C 1256.914063 463.28125 1252.96875 446.640625 1245.117188 430.898438 C 1237.265625 415.195313 1209.765625 379.804688 1209.765625 379.804688 C 1209.765625 379.804688 1200.976563 359.21875 1197.03125 343.515625 C 1193.125 327.8125 1181.328125 291.523438 1181.328125 291.523438 L 1189.179688 256.132813 L 1564.140625 256.132813 L 1564.140625 283.632813 L 1535.703125 308.164063 L 1480.664063 312.070313 L 1436.523438 331.71875 L 1396.328125 371.953125 L 1384.492188 407.304688 C 1384.492188 407.304688 1376.640625 435.78125 1384.492188 447.539063 C 1392.382813 459.335938 1409.023438 503.476563 1409.023438 503.476563 C 1409.023438 503.476563 1409.023438 534.960938 1420.820313 542.8125 C 1432.617188 550.664063 1456.171875 579.101563 1456.171875 579.101563 " transform="matrix(0.1,0,0,-0.1,0,144)"/>
<path style=" stroke:none;fill-rule:nonzero;fill:rgb(13.699341%,12.199402%,12.5%);fill-opacity:1;" d="M 145.65625 7.617188 L 147.597656 5.273438 L 149.609375 2.859375 L 144.046875 2.054688 L 140.089844 0.0390625 L 136.46875 -2.304688 L 137.273438 -4.316406 L 142.03125 -3.914063 L 145.253906 -5.929688 L 147.265625 -10.285156 L 146.460938 -13.910156 L 143.640625 -15.851563 L 142.433594 -19.476563 L 145.65625 -23.429688 L 152.027344 -25.847656 L 156.785156 -27.859375 L 167.183594 -27.859375 L 171.542969 -23.835938 L 177.507813 -19.878906 L 183.074219 -13.507813 L 186.699219 -5.929688 L 187.101563 2.859375 L 182.671875 6.007813 L 177.105469 6.410156 L 173.152344 7.21875 L 168.320313 6.007813 L 163.964844 0.441406 L 161.949219 0.847656 L 157.996094 4.46875 L 151.625 6.410156 L 149.609375 10.4375 L 146.460938 10.839844 "/>
<path style="fill:none;stroke-width:8.04;stroke-linecap:butt;stroke-linejoin:miter;stroke:rgb(13.699341%,12.199402%,12.5%);stroke-opacity:1;stroke-miterlimit:3.864;" d="M 1456.5625 1363.828125 L 1475.976563 1387.265625 L 1496.09375 1411.40625 L 1440.46875 1419.453125 L 1400.898438 1439.609375 L 1364.6875 1463.046875 L 1372.734375 1483.164063 L 1420.3125 1479.140625 L 1452.539063 1499.296875 L 1472.65625 1542.851563 L 1464.609375 1579.101563 L 1436.40625 1598.515625 L 1424.335938 1634.765625 L 1456.5625 1674.296875 L 1520.273438 1698.476563 L 1567.851563 1718.59375 L 1671.835938 1718.59375 L 1715.429688 1678.359375 L 1775.078125 1638.789063 L 1830.742188 1575.078125 L 1866.992188 1499.296875 L 1871.015625 1411.40625 L 1826.71875 1379.921875 L 1771.054688 1375.898438 L 1731.523438 1367.8125 L 1683.203125 1379.921875 L 1639.648438 1435.585938 L 1619.492188 1431.523438 L 1579.960938 1395.3125 L 1516.25 1375.898438 L 1496.09375 1335.625 L 1464.609375 1331.601563 Z M 1456.5625 1363.828125 " transform="matrix(0.1,0,0,-0.1,0,144)"/>
<path style=" stroke:none;fill-rule:nonzero;fill:rgb(100%,100%,100%);fill-opacity:1;" d="M 185.488281 -2.304688 L 179.121094 -0.765625 L 175.898438 2.054688 L 175.496094 6.007813 L 180.328125 4.871094 L 183.476563 2.457031 "/>
<path style="fill:none;stroke-width:8.04;stroke-linecap:butt;stroke-linejoin:miter;stroke:rgb(13.699341%,12.199402%,12.5%);stroke-opacity:1;stroke-miterlimit:3.864;" d="M 1854.882813 1463.046875 L 1791.210938 1447.65625 L 1758.984375 1419.453125 L 1754.960938 1379.921875 L 1803.28125 1391.289063 L 1834.765625 1415.429688 Z M 1854.882813 1463.046875 " transform="matrix(0.1,0,0,-0.1,0,144)"/>
<path style=" stroke:none;fill-rule:nonzero;fill:rgb(100%,100%,100%);fill-opacity:1;" d="M 166.378906 -0.765625 L 165.574219 0.84375 L 167.183594 3.261719 L 170.335938 5.273438 L 171.941406 4.066406 L 169.929688 0.441406 L 167.917969 -1.5 "/>
<path style="fill:none;stroke-width:8.04;stroke-linecap:butt;stroke-linejoin:miter;stroke:rgb(13.699341%,12.199402%,12.5%);stroke-opacity:1;stroke-miterlimit:3.864;" d="M 1663.789063 1447.65625 L 1655.742188 1431.5625 L 1671.835938 1407.382813 L 1703.359375 1387.265625 L 1719.414063 1399.335938 L 1699.296875 1435.585938 L 1679.179688 1455 Z M 1663.789063 1447.65625 " transform="matrix(0.1,0,0,-0.1,0,144)"/>
<path style=" stroke:none;fill-rule:nonzero;fill:rgb(100%,100%,100%);fill-opacity:1;" d="M 153.449219 -1.277344 L 156.714844 -0.402344 L 156.386719 2.457031 C 158.800781 2.457031 160.007813 1.246094 160.007813 1.246094 L 160.410156 -1.167969 L 158.800781 -4.316406 L 155.578125 -4.316406 L 153.636719 -3.109375 "/>
<path style="fill:none;stroke-width:8.04;stroke-linecap:butt;stroke-linejoin:miter;stroke:rgb(13.699341%,12.199402%,12.5%);stroke-opacity:1;stroke-miterlimit:3.864;" d="M 1534.492188 1452.773438 L 1567.148438 1444.023438 L 1563.867188 1415.429688 C 1588.007813 1415.429688 1600.078125 1427.539063 1600.078125 1427.539063 L 1604.101563 1451.679688 L 1588.007813 1483.164063 L 1555.78125 1483.164063 L 1536.367188 1471.09375 Z M 1534.492188 1452.773438 " transform="matrix(0.1,0,0,-0.1,0,144)"/>
<path style=" stroke:none;fill-rule:nonzero;fill:rgb(100%,100%,100%);fill-opacity:1;" d="M 148.539063 -6.648438 C 148.539063 -6.648438 147.902344 -3.492188 147.378906 -2.96875 C 146.851563 -2.441406 145.273438 -0.753906 144.570313 -0.226563 C 143.871094 0.300781 143.34375 1 143.34375 1 L 144.222656 1.703125 C 144.222656 1.703125 145.625 1.703125 146.5 1 C 147.378906 0.300781 147.484375 0.582031 148.363281 -0.578125 C 149.238281 -1.738281 150.820313 -1.738281 151.871094 -2.441406 C 152.925781 -3.140625 152.8125 -4.019531 154.152344 -4.371094 C 155.488281 -4.722656 154.960938 -4.722656 156.890625 -5.070313 C 158.820313 -5.421875 160.046875 -5.421875 159.347656 -6.125 C 158.644531 -6.824219 157.941406 -8.054688 157.941406 -8.054688 C 157.941406 -8.054688 157.59375 -9.039063 156.539063 -9.039063 C 155.488281 -9.039063 154.503906 -9.496094 153.800781 -8.6875 C 153.097656 -7.878906 153.273438 -7.351563 152.398438 -7.175781 C 151.519531 -7 151.171875 -7 150.46875 -7 C 149.765625 -7 148.539063 -6.648438 148.539063 -6.648438 "/>
<path style="fill:none;stroke-width:8.04;stroke-linecap:butt;stroke-linejoin:miter;stroke:rgb(13.699341%,12.199402%,12.5%);stroke-opacity:1;stroke-miterlimit:3.864;" d="M 1485.390625 1506.484375 C 1485.390625 1506.484375 1479.023438 1474.921875 1473.789063 1469.6875 C 1468.515625 1464.414063 1452.734375 1447.539063 1445.703125 1442.265625 C 1438.710938 1436.992188 1433.4375 1430 1433.4375 1430 L 1442.226563 1422.96875 C 1442.226563 1422.96875 1456.25 1422.96875 1465 1430 C 1473.789063 1436.992188 1474.84375 1434.179688 1483.632813 1445.78125 C 1492.382813 1457.382813 1508.203125 1457.382813 1518.710938 1464.414063 C 1529.257813 1471.40625 1528.125 1480.195313 1541.523438 1483.710938 C 1554.882813 1487.226563 1549.609375 1487.226563 1568.90625 1490.703125 C 1588.203125 1494.21875 1600.46875 1494.21875 1593.476563 1501.25 C 1586.445313 1508.242188 1579.414063 1520.546875 1579.414063 1520.546875 C 1579.414063 1520.546875 1575.9375 1530.390625 1565.390625 1530.390625 C 1554.882813 1530.390625 1545.039063 1534.960938 1538.007813 1526.875 C 1530.976563 1518.789063 1532.734375 1513.515625 1523.984375 1511.757813 C 1515.195313 1510 1511.71875 1510 1504.6875 1510 C 1497.65625 1510 1485.390625 1506.484375 1485.390625 1506.484375 Z M 1485.390625 1506.484375 " transform="matrix(0.1,0,0,-0.1,0,144)"/>
<path style=" stroke:none;fill-rule:evenodd;fill:rgb(100%,100%,100%);fill-opacity:1;" d="M 163.3125 -16.164063 L 161.910156 -14.9375 C 161.910156 -14.9375 161.382813 -13.773438 161.910156 -13.601563 C 162.4375 -13.421875 163.664063 -13.074219 163.664063 -13.074219 C 163.664063 -13.074219 165.242188 -12.019531 165.769531 -11.847656 C 166.296875 -11.671875 166.539063 -11.496094 167.347656 -11.320313 C 168.15625 -11.144531 168.683594 -10.792969 169.558594 -10.617188 C 169.558594 -10.617188 170.789063 -10.441406 171.664063 -10.441406 C 172.542969 -10.441406 172.542969 -10.089844 173.769531 -9.390625 C 174.996094 -8.6875 174.929688 -8.335938 175.980469 -7.703125 C 177.035156 -7.066406 176.507813 -5.949219 176.507813 -4.546875 C 176.507813 -3.144531 176.683594 -3.492188 177.210938 -1.28125 C 177.734375 0.933594 177.035156 -0.402344 176.335938 -0.0507813 C 175.632813 0.300781 174.753906 -0.226563 173.59375 -0.0507813 C 172.433594 0.121094 171.839844 -0.753906 171.488281 -1.28125 C 171.140625 -1.804688 169.910156 -4.019531 169.734375 -4.894531 C 169.558594 -5.773438 169.382813 -7.175781 169.382813 -7.175781 L 170.261719 -10.441406 C 170.261719 -10.441406 173.132813 -10.265625 174.46875 -10.265625 C 175.808594 -10.265625 177.035156 -9.914063 177.035156 -9.914063 C 177.035156 -9.914063 177.914063 -9.214844 178.085938 -10.089844 C 178.261719 -10.96875 178.085938 -11.496094 177.386719 -12.546875 C 176.683594 -13.601563 175.914063 -14.585938 174.929688 -15.285156 C 173.945313 -15.988281 172.367188 -16.6875 171.140625 -17.214844 C 169.910156 -17.742188 169.492188 -18.09375 168.332031 -18.269531 C 167.171875 -18.445313 166.644531 -18.96875 165.769531 -18.269531 C 164.890625 -17.566406 164.714844 -16.867188 164.191406 -16.6875 C 163.664063 -16.515625 163.3125 -16.164063 163.3125 -16.164063 "/>
<path style="fill:none;stroke-width:8.04;stroke-linecap:butt;stroke-linejoin:miter;stroke:rgb(13.699341%,12.199402%,12.5%);stroke-opacity:1;stroke-miterlimit:3.864;" d="M 1633.125 1601.640625 L 1619.101563 1589.375 C 1619.101563 1589.375 1613.828125 1577.734375 1619.101563 1576.015625 C 1624.375 1574.21875 1636.640625 1570.742188 1636.640625 1570.742188 C 1636.640625 1570.742188 1652.421875 1560.195313 1657.695313 1558.476563 C 1662.96875 1556.71875 1665.390625 1554.960938 1673.476563 1553.203125 C 1681.5625 1551.445313 1686.835938 1547.929688 1695.585938 1546.171875 C 1695.585938 1546.171875 1707.890625 1544.414063 1716.640625 1544.414063 C 1725.429688 1544.414063 1725.429688 1540.898438 1737.695313 1533.90625 C 1749.960938 1526.875 1749.296875 1523.359375 1759.804688 1517.03125 C 1770.351563 1510.664063 1765.078125 1499.492188 1765.078125 1485.46875 C 1765.078125 1471.445313 1766.835938 1474.921875 1772.109375 1452.8125 C 1777.34375 1430.664063 1770.351563 1444.023438 1763.359375 1440.507813 C 1756.328125 1436.992188 1747.539063 1442.265625 1735.9375 1440.507813 C 1724.335938 1438.789063 1718.398438 1447.539063 1714.882813 1452.8125 C 1711.40625 1458.046875 1699.101563 1480.195313 1697.34375 1488.945313 C 1695.585938 1497.734375 1693.828125 1511.757813 1693.828125 1511.757813 L 1702.617188 1544.414063 C 1702.617188 1544.414063 1731.328125 1542.65625 1744.6875 1542.65625 C 1758.085938 1542.65625 1770.351563 1539.140625 1770.351563 1539.140625 C 1770.351563 1539.140625 1779.140625 1532.148438 1780.859375 1540.898438 C 1782.617188 1549.6875 1780.859375 1554.960938 1773.867188 1565.46875 C 1766.835938 1576.015625 1759.140625 1585.859375 1749.296875 1592.851563 C 1739.453125 1599.882813 1723.671875 1606.875 1711.40625 1612.148438 C 1699.101563 1617.421875 1694.921875 1620.9375 1683.320313 1622.695313 C 1671.71875 1624.453125 1666.445313 1629.6875 1657.695313 1622.695313 C 1648.90625 1615.664063 1647.148438 1608.671875 1641.914063 1606.875 C 1636.640625 1605.15625 1633.125 1601.640625 1633.125 1601.640625 Z M 1633.125 1601.640625 " transform="matrix(0.1,0,0,-0.1,0,144)"/>
<path style="fill:none;stroke-width:8.04;stroke-linecap:butt;stroke-linejoin:miter;stroke:rgb(13.699341%,12.199402%,12.5%);stroke-opacity:1;stroke-miterlimit:3.864;" d="M 1898.59375 189.53125 L 1847.96875 210.859375 M 1955.664063 105.820313 L 1899.726563 167.070313 M 1857.539063 116.445313 L 1801.5625 177.734375 M 1659.648438 121.796875 L 1710.273438 159.0625 M 1597.226563 153.75 L 1663.828125 204.375 M 1540.15625 216.171875 L 1606.757813 221.484375 M 1388.710938 226.835938 L 1455.3125 210.859375 M 1283.671875 216.171875 L 1355.625 189.53125 M 1258.554688 168.203125 L 1309.21875 149.570313 M 1174.84375 148.4375 L 1225.46875 127.109375 M 1069.804688 116.445313 L 1133.789063 137.773438 M 966.328125 221.484375 C 1004.960938 221.484375 1030.273438 214.84375 1064.882813 200.195313 M 668.75 232.148438 C 742.03125 220.15625 783.320313 245.46875 856.5625 245.46875 M 595.703125 100.46875 C 639.648438 100.46875 664.960938 109.804688 704.921875 127.109375 C 672.96875 159.0625 636.992188 155.078125 595.703125 172.421875 C 633.007813 193.710938 662.304688 177.734375 704.921875 177.734375 M 502.851563 205.507813 C 562.8125 157.539063 605.429688 121.5625 684.023438 112.265625 C 763.945313 102.929688 847.851563 150.898438 887.8125 81.640625 " transform="matrix(0.1,0,0,-0.1,0,144)"/>
<path style=" stroke:none;fill-rule:nonzero;fill:rgb(13.699341%,12.199402%,12.5%);fill-opacity:1;" d="M 166.050781 7.480469 L 164.703125 6.808594 L 164.816406 8.039063 L 166.273438 8.714844 Z M 166.050781 7.480469 "/>
<path style="fill:none;stroke-width:80.35;stroke-linecap:butt;stroke-linejoin:miter;stroke:rgb(67.842102%,64.704895%,30.979919%);stroke-opacity:1;stroke-miterlimit:3.864;" d="M -9.453125 719.765625 C -9.453125 1415.46875 554.492188 1979.414063 1250.117188 1979.414063 C 1945.78125 1979.414063 2509.6875 1415.46875 2509.6875 719.765625 C 2509.6875 24.101563 1945.78125 -539.84375 1250.117188 -539.84375 C 554.492188 -539.84375 -9.453125 24.101563 -9.453125 719.765625 Z M -9.453125 719.765625 " transform="matrix(0.1,0,0,-0.1,0,144)"/>
<path style=" stroke:none;fill-rule:nonzero;fill:rgb(13.699341%,12.199402%,12.5%);fill-opacity:1;" d="M 142.386719 143.730469 L 145.328125 143.730469 L 144.425781 141.339844 C 144.148438 140.605469 143.941406 140 143.808594 139.53125 C 143.6875 140.097656 143.519531 140.652344 143.324219 141.195313 Z M 139.886719 147.28125 L 143.207031 138.636719 L 144.460938 138.636719 L 147.984375 147.28125 L 146.683594 147.28125 L 145.679688 144.660156 L 142.046875 144.660156 L 141.105469 147.28125 Z M 134.082031 147.28125 L 134.082031 138.636719 L 135.230469 138.636719 L 135.230469 146.265625 L 139.476563 146.265625 L 139.476563 147.28125 Z M 122.351563 144.503906 L 123.425781 144.40625 C 123.472656 144.839844 123.59375 145.203125 123.785156 145.480469 C 123.96875 145.757813 124.257813 145.976563 124.65625 146.15625 C 125.042969 146.324219 125.488281 146.410156 125.972656 146.410156 C 126.40625 146.410156 126.792969 146.351563 127.132813 146.214844 C 127.46875 146.085938 127.710938 145.902344 127.878906 145.671875 C 128.035156 145.457031 128.121094 145.203125 128.121094 144.9375 C 128.121094 144.671875 128.035156 144.429688 127.878906 144.226563 C 127.722656 144.03125 127.46875 143.863281 127.105469 143.71875 C 126.878906 143.632813 126.359375 143.488281 125.574219 143.296875 C 124.777344 143.117188 124.222656 142.933594 123.894531 142.765625 C 123.484375 142.546875 123.183594 142.269531 122.980469 141.957031 C 122.773438 141.628906 122.675781 141.28125 122.675781 140.882813 C 122.675781 140.4375 122.796875 140.039063 123.050781 139.652344 C 123.292969 139.277344 123.65625 138.988281 124.136719 138.78125 C 124.609375 138.589844 125.140625 138.492188 125.71875 138.492188 C 126.359375 138.492188 126.925781 138.601563 127.40625 138.804688 C 127.902344 139.011719 128.277344 139.3125 128.542969 139.710938 C 128.808594 140.109375 128.941406 140.570313 128.964844 141.074219 L 127.867188 141.160156 C 127.808594 140.617188 127.613281 140.207031 127.265625 139.929688 C 126.925781 139.652344 126.429688 139.503906 125.765625 139.503906 C 125.066406 139.503906 124.570313 139.636719 124.246094 139.894531 C 123.933594 140.144531 123.777344 140.449219 123.777344 140.796875 C 123.777344 141.113281 123.882813 141.367188 124.113281 141.570313 C 124.332031 141.773438 124.910156 141.980469 125.839844 142.1875 C 126.769531 142.390625 127.40625 142.585938 127.746094 142.742188 C 128.253906 142.96875 128.613281 143.257813 128.855469 143.609375 C 129.097656 143.972656 129.21875 144.382813 129.21875 144.839844 C 129.21875 145.300781 129.085938 145.734375 128.820313 146.144531 C 128.566406 146.542969 128.179688 146.855469 127.6875 147.085938 C 127.203125 147.316406 126.648438 147.421875 126.03125 147.421875 C 125.246094 147.421875 124.597656 147.316406 124.066406 147.085938 C 123.535156 146.855469 123.125 146.507813 122.820313 146.058594 C 122.519531 145.601563 122.363281 145.082031 122.351563 144.503906 M 119.5625 138.636719 L 120.710938 138.636719 L 120.710938 147.28125 L 119.5625 147.28125 Z M 111.34375 147.28125 L 111.34375 138.636719 L 117.585938 138.636719 L 117.585938 139.652344 L 112.492188 139.652344 L 112.492188 142.304688 L 117.257813 142.304688 L 117.257813 143.320313 L 112.492188 143.320313 L 112.492188 146.265625 L 117.789063 146.265625 L 117.789063 147.28125 Z M 103.777344 142.453125 L 106.226563 142.453125 C 106.757813 142.453125 107.15625 142.402344 107.460938 142.292969 C 107.75 142.1875 107.964844 142.003906 108.121094 141.773438 C 108.28125 141.535156 108.351563 141.269531 108.351563 140.992188 C 108.351563 140.582031 108.207031 140.253906 107.90625 139.988281 C 107.617188 139.722656 107.144531 139.589844 106.507813 139.589844 L 103.777344 139.589844 Z M 102.632813 147.28125 L 102.632813 138.636719 L 106.457031 138.636719 C 107.230469 138.636719 107.820313 138.710938 108.21875 138.867188 C 108.617188 139.023438 108.933594 139.300781 109.171875 139.6875 C 109.414063 140.085938 109.535156 140.519531 109.535156 140.992188 C 109.535156 141.605469 109.34375 142.125 108.945313 142.546875 C 108.546875 142.957031 107.929688 143.234375 107.109375 143.34375 C 107.410156 143.488281 107.640625 143.632813 107.796875 143.777344 C 108.121094 144.082031 108.4375 144.464844 108.738281 144.925781 L 110.234375 147.28125 L 108.8125 147.28125 L 107.664063 145.480469 C 107.324219 144.960938 107.050781 144.5625 106.84375 144.285156 C 106.628906 144.007813 106.433594 143.816406 106.265625 143.707031 C 106.082031 143.597656 105.914063 143.523438 105.734375 143.476563 C 105.613281 143.453125 105.394531 143.441406 105.105469 143.441406 L 103.777344 143.441406 L 103.777344 147.28125 Z M 94.582031 147.28125 L 94.582031 138.636719 L 100.820313 138.636719 L 100.820313 139.652344 L 95.726563 139.652344 L 95.726563 142.304688 L 100.496094 142.304688 L 100.496094 143.320313 L 95.726563 143.320313 L 95.726563 146.265625 L 101.027344 146.265625 L 101.027344 147.28125 Z M 92 144.25 L 93.144531 144.539063 C 92.90625 145.480469 92.46875 146.191406 91.855469 146.6875 C 91.226563 147.183594 90.46875 147.421875 89.574219 147.421875 C 88.644531 147.421875 87.882813 147.230469 87.304688 146.855469 C 86.722656 146.46875 86.277344 145.925781 85.976563 145.203125 C 85.675781 144.492188 85.519531 143.71875 85.519531 142.898438 C 85.519531 141.992188 85.6875 141.207031 86.035156 140.542969 C 86.375 139.867188 86.871094 139.363281 87.496094 139.011719 C 88.136719 138.660156 88.824219 138.492188 89.597656 138.492188 C 90.453125 138.492188 91.179688 138.710938 91.769531 139.15625 C 92.363281 139.589844 92.773438 140.207031 93.003906 141.003906 L 91.878906 141.269531 C 91.671875 140.640625 91.382813 140.179688 91.011719 139.90625 C 90.625 139.613281 90.152344 139.46875 89.574219 139.46875 C 88.910156 139.46875 88.355469 139.625 87.90625 139.953125 C 87.460938 140.265625 87.148438 140.6875 86.96875 141.230469 C 86.785156 141.761719 86.699219 142.320313 86.699219 142.886719 C 86.699219 143.621094 86.808594 144.261719 87.027344 144.816406 C 87.230469 145.359375 87.570313 145.769531 88.015625 146.035156 C 88.464844 146.3125 88.957031 146.445313 89.476563 146.445313 C 90.117188 146.445313 90.660156 146.265625 91.105469 145.890625 C 91.539063 145.53125 91.84375 144.972656 92 144.25 M 77.289063 143.089844 C 77.289063 144.128906 77.566406 144.949219 78.132813 145.550781 C 78.6875 146.144531 79.386719 146.445313 80.234375 146.445313 C 81.089844 146.445313 81.800781 146.144531 82.355469 145.542969 C 82.910156 144.9375 83.191406 144.082031 83.191406 142.96875 C 83.191406 142.269531 83.070313 141.65625 82.828125 141.136719 C 82.597656 140.605469 82.246094 140.207031 81.789063 139.917969 C 81.332031 139.625 80.824219 139.480469 80.246094 139.480469 C 79.4375 139.480469 78.746094 139.757813 78.15625 140.3125 C 77.578125 140.871094 77.289063 141.800781 77.289063 143.089844 M 76.105469 143.078125 C 76.105469 141.644531 76.492188 140.519531 77.261719 139.710938 C 78.035156 138.902344 79.027344 138.492188 80.246094 138.492188 C 81.039063 138.492188 81.765625 138.6875 82.40625 139.058594 C 83.042969 139.445313 83.527344 139.976563 83.863281 140.652344 C 84.203125 141.339844 84.371094 142.113281 84.371094 142.96875 C 84.371094 143.851563 84.191406 144.636719 83.84375 145.324219 C 83.492188 146.011719 82.984375 146.53125 82.332031 146.894531 C 81.691406 147.242188 80.992188 147.421875 80.246094 147.421875 C 79.421875 147.421875 78.699219 147.230469 78.058594 146.832031 C 77.421875 146.445313 76.925781 145.902344 76.597656 145.226563 C 76.273438 144.550781 76.105469 143.828125 76.105469 143.078125 M 67.730469 147.28125 L 67.730469 138.636719 L 68.898438 138.636719 L 73.4375 145.417969 L 73.4375 138.636719 L 74.535156 138.636719 L 74.535156 147.28125 L 73.367188 147.28125 L 68.828125 140.496094 L 68.828125 147.28125 Z M 59.183594 143.089844 C 59.183594 144.128906 59.464844 144.949219 60.03125 145.550781 C 60.585938 146.144531 61.285156 146.445313 62.128906 146.445313 C 62.988281 146.445313 63.699219 146.144531 64.253906 145.542969 C 64.808594 144.9375 65.085938 144.082031 65.085938 142.96875 C 65.085938 142.269531 64.96875 141.65625 64.722656 141.136719 C 64.496094 140.605469 64.144531 140.207031 63.6875 139.917969 C 63.226563 139.625 62.71875 139.480469 62.140625 139.480469 C 61.332031 139.480469 60.644531 139.757813 60.054688 140.3125 C 59.472656 140.871094 59.183594 141.800781 59.183594 143.089844 M 58.003906 143.078125 C 58.003906 141.644531 58.386719 140.519531 59.160156 139.710938 C 59.933594 138.902344 60.921875 138.492188 62.140625 138.492188 C 62.9375 138.492188 63.664063 138.6875 64.300781 139.058594 C 64.941406 139.445313 65.425781 139.976563 65.761719 140.652344 C 66.101563 141.339844 66.269531 142.113281 66.269531 142.96875 C 66.269531 143.851563 66.089844 144.636719 65.738281 145.324219 C 65.390625 146.011719 64.882813 146.53125 64.230469 146.894531 C 63.589844 147.242188 62.890625 147.421875 62.140625 147.421875 C 61.320313 147.421875 60.597656 147.230469 59.957031 146.832031 C 59.316406 146.445313 58.824219 145.902344 58.496094 145.226563 C 58.171875 144.550781 58.003906 143.828125 58.003906 143.078125 M 55.792969 144.25 L 56.941406 144.539063 C 56.699219 145.480469 56.265625 146.191406 55.648438 146.6875 C 55.023438 147.183594 54.261719 147.421875 53.367188 147.421875 C 52.4375 147.421875 51.675781 147.230469 51.097656 146.855469 C 50.519531 146.46875 50.074219 145.925781 49.773438 145.203125 C 49.46875 144.492188 49.3125 143.71875 49.3125 142.898438 C 49.3125 141.992188 49.480469 141.207031 49.832031 140.542969 C 50.167969 139.867188 50.664063 139.363281 51.292969 139.011719 C 51.929688 138.660156 52.621094 138.492188 53.390625 138.492188 C 54.25 138.492188 54.972656 138.710938 55.566406 139.15625 C 56.15625 139.589844 56.566406 140.207031 56.796875 141.003906 L 55.671875 141.269531 C 55.46875 140.640625 55.179688 140.179688 54.804688 139.90625 C 54.417969 139.613281 53.945313 139.46875 53.367188 139.46875 C 52.703125 139.46875 52.148438 139.625 51.703125 139.953125 C 51.257813 140.265625 50.941406 140.6875 50.761719 141.230469 C 50.578125 141.761719 50.496094 142.320313 50.496094 142.886719 C 50.496094 143.621094 50.605469 144.261719 50.820313 144.816406 C 51.027344 145.359375 51.363281 145.769531 51.8125 146.035156 C 52.257813 146.3125 52.753906 146.445313 53.273438 146.445313 C 53.910156 146.445313 54.453125 146.265625 54.902344 145.890625 C 55.335938 145.53125 55.636719 144.972656 55.792969 144.25 "/>
<path style=" stroke:none;fill-rule:nonzero;fill:rgb(13.699341%,12.199402%,12.5%);fill-opacity:1;" d="M 194.390625 146.265625 L 196.238281 146.265625 C 196.804688 146.265625 197.25 146.214844 197.578125 146.109375 C 197.890625 146 198.15625 145.855469 198.351563 145.660156 C 198.617188 145.382813 198.832031 145.019531 198.976563 144.5625 C 199.136719 144.105469 199.207031 143.550781 199.207031 142.898438 C 199.207031 141.992188 199.0625 141.292969 198.761719 140.808594 C 198.472656 140.3125 198.109375 139.988281 197.6875 139.832031 C 197.371094 139.710938 196.878906 139.652344 196.203125 139.652344 L 194.390625 139.652344 Z M 193.246094 147.28125 L 193.246094 138.636719 L 196.226563 138.636719 C 196.890625 138.636719 197.410156 138.671875 197.757813 138.757813 C 198.253906 138.878906 198.675781 139.082031 199.027344 139.386719 C 199.484375 139.761719 199.824219 140.253906 200.050781 140.859375 C 200.28125 141.460938 200.390625 142.136719 200.390625 142.910156 C 200.390625 143.5625 200.316406 144.152344 200.160156 144.660156 C 200.003906 145.167969 199.8125 145.578125 199.570313 145.914063 C 199.328125 146.242188 199.074219 146.507813 198.785156 146.699219 C 198.496094 146.894531 198.15625 147.039063 197.746094 147.132813 C 197.347656 147.230469 196.890625 147.28125 196.359375 147.28125 Z M 186.738281 143.730469 L 189.683594 143.730469 L 188.78125 141.339844 C 188.503906 140.605469 188.296875 140 188.164063 139.53125 C 188.042969 140.097656 187.871094 140.652344 187.679688 141.195313 Z M 184.242188 147.28125 L 187.5625 138.636719 L 188.816406 138.636719 L 192.339844 147.28125 L 191.035156 147.28125 L 190.035156 144.660156 L 186.402344 144.660156 L 185.460938 147.28125 Z M 177.628906 146.265625 L 179.476563 146.265625 C 180.039063 146.265625 180.488281 146.214844 180.8125 146.109375 C 181.128906 146 181.394531 145.855469 181.585938 145.660156 C 181.851563 145.382813 182.070313 145.019531 182.214844 144.5625 C 182.371094 144.105469 182.445313 143.550781 182.445313 142.898438 C 182.445313 141.992188 182.296875 141.292969 181.996094 140.808594 C 181.707031 140.3125 181.347656 139.988281 180.921875 139.832031 C 180.609375 139.710938 180.113281 139.652344 179.4375 139.652344 L 177.628906 139.652344 Z M 176.480469 147.28125 L 176.480469 138.636719 L 179.464844 138.636719 C 180.125 138.636719 180.644531 138.671875 180.996094 138.757813 C 181.492188 138.878906 181.914063 139.082031 182.261719 139.386719 C 182.722656 139.761719 183.058594 140.253906 183.289063 140.859375 C 183.519531 141.460938 183.628906 142.136719 183.628906 142.910156 C 183.628906 143.5625 183.554688 144.152344 183.398438 144.660156 C 183.242188 145.167969 183.046875 145.578125 182.804688 145.914063 C 182.5625 146.242188 182.3125 146.507813 182.019531 146.699219 C 181.730469 146.894531 181.394531 147.039063 180.984375 147.132813 C 180.585938 147.230469 180.125 147.28125 179.597656 147.28125 Z M 168.9375 142.453125 L 171.390625 142.453125 C 171.921875 142.453125 172.320313 142.402344 172.621094 142.292969 C 172.910156 142.1875 173.128906 142.003906 173.285156 141.777344 C 173.441406 141.535156 173.511719 141.269531 173.511719 140.992188 C 173.511719 140.578125 173.367188 140.253906 173.066406 139.988281 C 172.777344 139.722656 172.304688 139.589844 171.664063 139.589844 L 168.9375 139.589844 Z M 167.789063 147.28125 L 167.789063 138.636719 L 171.617188 138.636719 C 172.390625 138.636719 172.980469 138.710938 173.378906 138.867188 C 173.777344 139.023438 174.09375 139.300781 174.335938 139.6875 C 174.574219 140.085938 174.695313 140.519531 174.695313 140.992188 C 174.695313 141.605469 174.503906 142.125 174.105469 142.546875 C 173.703125 142.957031 173.089844 143.234375 172.269531 143.34375 C 172.570313 143.488281 172.800781 143.632813 172.957031 143.777344 C 173.285156 144.078125 173.597656 144.464844 173.898438 144.925781 L 175.394531 147.28125 L 173.972656 147.28125 L 172.824219 145.480469 C 172.488281 144.960938 172.210938 144.5625 172.003906 144.285156 C 171.785156 144.007813 171.59375 143.816406 171.425781 143.707031 C 171.246094 143.597656 171.074219 143.527344 170.894531 143.476563 C 170.773438 143.453125 170.554688 143.441406 170.265625 143.441406 L 168.9375 143.441406 L 168.9375 147.28125 Z M 159.742188 147.28125 L 159.742188 138.636719 L 165.980469 138.636719 L 165.980469 139.652344 L 160.890625 139.652344 L 160.890625 142.304688 L 165.65625 142.304688 L 165.65625 143.320313 L 160.890625 143.320313 L 160.890625 146.265625 L 166.1875 146.265625 L 166.1875 147.28125 Z M 154.128906 147.28125 L 150.785156 138.636719 L 152.03125 138.636719 L 154.277344 144.914063 C 154.457031 145.417969 154.601563 145.890625 154.734375 146.324219 C 154.867188 145.855469 155.011719 145.382813 155.195313 144.914063 L 157.523438 138.636719 L 158.695313 138.636719 L 155.3125 147.28125 "/>
<path style=" stroke:none;fill-rule:nonzero;fill:rgb(100%,100%,100%);fill-opacity:1;" d="M -21.796875 13.949219 L -13.304688 17.730469 L -12.9375 16.90625 C -12.347656 15.585938 -12.023438 14.535156 -11.957031 13.753906 C -11.933594 12.988281 -12.140625 12.265625 -12.585938 11.609375 C -13.0625 10.9375 -13.808594 10.394531 -14.835938 9.9375 C -16.304688 9.285156 -17.550781 9.152344 -18.554688 9.515625 C -19.574219 9.90625 -20.425781 10.867188 -21.117188 12.421875 Z M -12.277344 18.1875 L -6.78125 20.632813 C -5.722656 21.101563 -5.050781 21.332031 -4.691406 21.316406 C -4.375 21.316406 -4.0625 21.171875 -3.742188 20.929688 C -3.453125 20.671875 -3.089844 20.09375 -2.695313 19.210938 L -2.199219 19.433594 L -6.628906 29.390625 L -7.128906 29.167969 C -6.722656 28.257813 -6.550781 27.632813 -6.582031 27.230469 C -6.585938 26.84375 -6.71875 26.503906 -6.929688 26.265625 C -7.128906 26.003906 -7.75 25.65625 -8.804688 25.183594 L -21.53125 19.523438 C -22.589844 19.050781 -23.261719 18.824219 -23.621094 18.839844 C -23.941406 18.839844 -24.25 18.980469 -24.570313 19.226563 C -24.859375 19.484375 -25.222656 20.0625 -25.613281 20.945313 L -26.113281 20.722656 L -22.085938 11.675781 C -21.042969 9.324219 -20.09375 7.671875 -19.285156 6.726563 C -18.480469 5.785156 -17.5 5.164063 -16.304688 4.851563 C -15.121094 4.566406 -13.933594 4.675781 -12.757813 5.195313 C -11.320313 5.835938 -10.351563 6.902344 -9.867188 8.347656 C -9.566406 9.257813 -9.546875 10.390625 -9.773438 11.699219 L -1.082031 9.96875 C 0.015625 9.71875 0.726563 9.542969 1.050781 9.371094 C 1.554688 9.101563 1.898438 8.726563 2.164063 8.214844 L 2.695313 8.449219 L -0.0390625 14.585938 L -11.699219 16.894531 "/>
<path style=" stroke:none;fill-rule:nonzero;fill:rgb(100%,100%,100%);fill-opacity:1;" d="M -7.539063 -16.492188 L -1.425781 -12.863281 L -1.765625 -12.316406 C -3.417969 -13.007813 -5.054688 -13.121094 -6.585938 -12.675781 C -8.144531 -12.246094 -9.292969 -11.445313 -10.023438 -10.273438 C -10.585938 -9.371094 -10.785156 -8.511719 -10.636719 -7.65625 C -10.496094 -6.847656 -10.089844 -6.21875 -9.464844 -5.828125 C -9.054688 -5.570313 -8.648438 -5.429688 -8.230469 -5.433594 C -7.648438 -5.453125 -6.984375 -5.605469 -6.21875 -5.921875 C -5.664063 -6.144531 -4.546875 -6.773438 -2.855469 -7.839844 C -0.480469 -9.277344 1.40625 -10.109375 2.765625 -10.28125 C 4.15625 -10.4375 5.4375 -10.128906 6.613281 -9.394531 C 8.140625 -8.441406 9.046875 -7.039063 9.40625 -5.183594 C 9.765625 -3.332031 9.375 -1.488281 8.25 0.308594 C 7.890625 0.882813 7.496094 1.394531 7.0625 1.84375 C 6.617188 2.25 6.007813 2.738281 5.230469 3.316406 C 4.769531 3.632813 4.464844 3.9375 4.292969 4.210938 C 4.140625 4.453125 4.070313 4.75 4.105469 5.113281 C 4.117188 5.464844 4.253906 5.851563 4.53125 6.253906 L 4.242188 6.71875 L -2.578125 2.457031 L -2.289063 1.992188 C -0.140625 2.804688 1.8125 2.960938 3.519531 2.472656 C 5.226563 1.984375 6.46875 1.09375 7.269531 -0.1875 C 7.898438 -1.195313 8.121094 -2.160156 7.933594 -3.070313 C 7.761719 -4.011719 7.324219 -4.703125 6.613281 -5.148438 C 6.175781 -5.421875 5.699219 -5.566406 5.15625 -5.605469 C 4.617188 -5.597656 4.03125 -5.507813 3.386719 -5.265625 C 2.742188 -5.023438 1.742188 -4.515625 0.4375 -3.699219 C -1.394531 -2.53125 -2.835938 -1.800781 -3.828125 -1.433594 C -4.859375 -1.054688 -5.855469 -0.917969 -6.777344 -0.964844 C -7.726563 -1.023438 -8.605469 -1.308594 -9.453125 -1.839844 C -10.898438 -2.742188 -11.804688 -4.027344 -12.148438 -5.722656 C -12.492188 -7.414063 -12.175781 -9.074219 -11.167969 -10.683594 C -10.8125 -11.257813 -10.371094 -11.777344 -9.894531 -12.238281 C -9.511719 -12.605469 -9.015625 -12.976563 -8.367188 -13.40625 C -7.691406 -13.820313 -7.285156 -14.171875 -7.144531 -14.390625 C -6.992188 -14.636719 -6.972656 -14.847656 -7.023438 -15.070313 C -7.074219 -15.292969 -7.316406 -15.632813 -7.796875 -16.082031 "/>
<path style=" stroke:none;fill-rule:nonzero;fill:rgb(100%,100%,100%);fill-opacity:1;" d="M 272.472656 13.898438 L 265.683594 17.066406 L 265.449219 16.570313 C 266.988281 15.074219 267.96875 13.445313 268.34375 11.746094 C 268.707031 10.015625 268.523438 8.398438 267.816406 6.882813 C 267.148438 5.453125 266.167969 4.421875 264.90625 3.839844 C 263.652344 3.285156 262.21875 3.105469 260.570313 3.378906 C 258.9375 3.675781 257.355469 4.164063 255.839844 4.871094 C 253.976563 5.742188 252.46875 6.695313 251.273438 7.785156 C 250.078125 8.875 249.382813 10.050781 249.203125 11.339844 C 248.984375 12.613281 249.207031 13.929688 249.832031 15.269531 C 250.035156 15.707031 250.324219 16.175781 250.644531 16.628906 C 250.980469 17.042969 251.324219 17.484375 251.773438 17.914063 L 255.769531 16.050781 C 256.554688 15.683594 257.023438 15.394531 257.1875 15.210938 C 257.363281 14.984375 257.472656 14.6875 257.527344 14.269531 C 257.539063 13.839844 257.449219 13.421875 257.234375 12.953125 L 257.003906 12.460938 L 257.496094 12.226563 L 261.875 21.609375 L 261.378906 21.84375 C 260.980469 21.140625 260.660156 20.6875 260.394531 20.492188 C 260.113281 20.269531 259.753906 20.1875 259.324219 20.175781 C 259.109375 20.171875 258.65625 20.34375 257.929688 20.683594 L 253.9375 22.546875 C 252.8125 21.582031 251.804688 20.488281 250.890625 19.285156 C 250 18.066406 249.214844 16.765625 248.550781 15.335938 C 247.695313 13.5 247.25 11.863281 247.171875 10.40625 C 247.113281 8.980469 247.25 7.605469 247.644531 6.320313 C 248.023438 5.007813 248.589844 3.855469 249.363281 2.855469 C 250.363281 1.574219 251.671875 0.574219 253.300781 -0.1875 C 256.1875 -1.535156 259.113281 -1.65625 262.074219 -0.554688 C 265.035156 0.546875 267.222656 2.648438 268.679688 5.769531 C 269.113281 6.703125 269.433594 7.617188 269.640625 8.441406 C 269.789063 8.90625 269.867188 9.6875 269.953125 10.78125 C 270.039063 11.878906 270.121094 12.511719 270.203125 12.6875 C 270.324219 12.949219 270.535156 13.171875 270.835938 13.28125 C 271.148438 13.417969 271.59375 13.460938 272.242188 13.402344 "/>
<path style=" stroke:none;fill-rule:nonzero;fill:rgb(100%,100%,100%);fill-opacity:1;" d="M 267.4375 142.476563 L 253.460938 123.328125 L 251.941406 127.085938 C 251.21875 128.875 250.84375 130.148438 250.761719 130.945313 C 250.648438 132.253906 250.910156 133.503906 251.496094 134.710938 C 252.109375 135.929688 253.121094 137.035156 254.582031 137.972656 L 254.355469 138.539063 L 247.511719 134.871094 L 254.828125 116.773438 L 268.820313 135.957031 L 270.003906 133.035156 C 270.460938 131.902344 270.730469 131.144531 270.816406 130.765625 C 270.945313 130.019531 270.972656 129.265625 270.824219 128.511719 C 270.710938 127.773438 270.394531 127.089844 269.9375 126.417969 C 269.496094 125.789063 268.8125 125.164063 267.957031 124.542969 L 268.171875 124.003906 L 273.742188 126.878906 "/>
<path style=" stroke:none;fill-rule:nonzero;fill:rgb(0%,39.99939%,70.199585%);fill-opacity:1;" d="M 121.046875 30.910156 L 117.375 31.921875 L 115.757813 33.828125 L 113.039063 35.457031 L 108.414063 37.285156 L 104.953125 40.007813 L 107.128906 40.824219 L 111.679688 39.460938 L 114.867188 39.191406 L 119.414063 38.375 L 122.675781 38.375 L 121.316406 36.273438 L 120.773438 33.011719 "/>
<path style="fill:none;stroke-width:5.94;stroke-linecap:butt;stroke-linejoin:miter;stroke:rgb(13.699341%,12.199402%,12.5%);stroke-opacity:1;stroke-miterlimit:3.864;" d="M 1210.46875 1130.898438 L 1173.75 1120.78125 L 1157.578125 1101.71875 L 1130.390625 1085.429688 L 1084.140625 1067.148438 L 1049.53125 1039.921875 L 1071.289063 1031.757813 L 1116.796875 1045.390625 L 1148.671875 1048.085938 L 1194.140625 1056.25 L 1226.757813 1056.25 L 1213.164063 1077.265625 L 1207.734375 1109.882813 Z M 1210.46875 1130.898438 " transform="matrix(0.1,0,0,-0.1,0,144)"/>
</g>
</svg>
